# xmcd
#
# Track frame offsets:
#	150
#	14645
#	31230
#	43994
#	60156
#	79767
#	90113
#	103442
#	122521
#	135393
#	151954
#	169404
#	184154
#
# Disc length: 2598 seconds
#
# Revision: 1
# Processed by: cddbd v1.5.2PL0 Copyright (c) Steve Scherf et al.
# Submitted via: EZCDAudioConverter 5.0.0.1
#
DISCID=a10a240d
DTITLE=Shawn Colvin and Steve Earle - Colvin and Earle
DYEAR=2016
DGENRE=Americana
TTITLE0=Come What May
TTITLE1=Tell Moses
TTITLE2=Tobacco Road
TTITLE3=Ruby Tuesday
TTITLE4=The Way That We Do
TTITLE5=Happy And Free
TTITLE6=You Were On My Mind
TTITLE7=You're Right (I'm Wrong)
TTITLE8=Raise The Dead
TTITLE9=You're Still Gone
TTITLE10=Someday
TTITLE11=That Don't Worry Me Now
TTITLE12=Baby's In Black
EXTD=
EXTT0=
EXTT1=
EXTT2=
EXTT3=
EXTT4=
EXTT5=
EXTT6=
EXTT7=
EXTT8=
EXTT9=
EXTT10=
EXTT11=
EXTT12=
PLAYORDER=
